<?xml version="1.0" standalone="no"?>
<!DOCTYPE svg PUBLIC "-//W3C//DTD SVG 20010904//EN"
 "http://www.w3.org/TR/2001/REC-SVG-20010904/DTD/svg10.dtd">
<svg version="1.0" xmlns="http://www.w3.org/2000/svg"
 width="262.000000pt" height="262.000000pt" viewBox="0 0 262.000000 262.000000"
 preserveAspectRatio="xMidYMid meet">
<metadata>
Created by potrace 1.11, written by Peter Selinger 2001-2013
</metadata>
<g transform="translate(0.000000,262.000000) scale(0.100000,-0.100000)"
fill="#000000" stroke="none">
<path d="M1 2289 c1 -291 3 -330 16 -325 11 4 13 2 9 -9 -3 -8 0 -15 5 -15 7
0 9 -11 7 -25 -5 -22 -2 -25 16 -20 11 2 16 2 9 -1 -9 -4 -9 -14 0 -42 7 -20
13 -43 13 -49 2 -28 5 -33 20 -33 14 0 15 -2 3 -17 -12 -15 -12 -16 3 -10 12
4 15 2 12 -7 -3 -8 -1 -17 5 -21 19 -11 12 -31 -14 -43 -35 -16 -43 -15 -19 3
13 11 14 13 3 9 -10 -3 -19 1 -23 11 -3 9 -2 13 4 10 14 -9 12 1 -6 37 -13 25
-18 28 -26 17 -8 -11 -9 -10 -4 4 3 10 6 21 6 23 0 3 4 2 10 -1 6 -3 7 1 3 10
-3 9 -9 13 -12 8 -7 -9 -31 -16 -31 -8 0 2 10 14 23 25 16 16 17 19 4 15 -9
-4 -18 -3 -18 1 -1 5 -3 19 -4 32 -4 38 -15 38 -15 -1 0 -19 6 -38 13 -40 10
-4 10 -6 0 -6 -17 -1 -17 -88 0 -94 9 -4 9 -6 0 -6 -9 -1 -13 -22 -13 -72 0
-53 3 -68 12 -63 8 5 8 2 -1 -10 -12 -14 -12 -17 0 -14 8 2 15 -7 17 -22 2
-14 8 -30 14 -37 6 -8 2 -11 -16 -9 l-26 3 0 -253 c0 -235 1 -254 18 -255 14
0 14 -2 -3 -9 -13 -6 -15 -9 -5 -9 10 -1 11 -4 3 -9 -12 -8 -14 -82 -2 -82 5
0 16 13 26 30 15 26 33 40 33 25 0 -11 -24 -55 -30 -55 -4 0 -10 -11 -12 -25
-3 -14 -4 -25 -3 -25 2 0 15 23 30 51 l26 51 -22 21 c-14 13 -18 22 -10 25 15
5 41 -16 51 -43 8 -17 9 -18 9 -2 1 10 5 16 10 13 14 -9 7 -51 -9 -52 -36 -2
-43 -4 -37 -11 4 -3 3 -11 -1 -18 -4 -6 1 -3 10 8 10 10 22 16 28 12 6 -4 17
-1 25 5 8 7 20 10 27 7 8 -3 6 -6 -5 -6 -10 -1 -16 -5 -12 -10 3 -5 1 -12 -5
-16 -6 -4 -8 -11 -4 -16 3 -6 -5 -22 -17 -36 -19 -20 -20 -25 -6 -20 9 4 17 2
17 -3 0 -6 -7 -10 -15 -10 -8 0 -15 -5 -15 -11 0 -6 7 -8 16 -5 14 5 15 4 4
-9 -7 -9 -19 -14 -27 -11 -8 3 -11 1 -8 -4 3 -6 0 -10 -8 -10 -8 0 -17 -6 -20
-14 -3 -8 -15 -12 -30 -9 l-26 5 -1 -212 c0 -155 2 -210 11 -205 8 5 8 1 -1
-15 -12 -22 -10 -131 4 -180 5 -21 5 -22 -3 -5 -7 15 -9 7 -9 -35 0 -51 2 -55
24 -56 24 -2 32 10 14 21 -5 3 -10 12 -10 18 0 7 10 0 21 -15 l21 -28 328 0
c181 0 335 3 344 6 19 7 21 24 3 24 -7 0 -18 9 -25 21 -12 19 -11 20 10 15 20
-6 19 -4 -4 9 -16 9 -28 24 -28 33 0 10 -6 24 -12 30 -10 10 -10 15 2 23 13 9
12 10 -2 5 -13 -4 -19 2 -24 22 -3 15 -19 53 -36 85 -16 32 -28 67 -25 78 3
10 1 19 -4 19 -4 0 -19 24 -32 52 -55 121 -67 149 -67 158 0 6 -14 39 -30 73
-18 39 -30 80 -30 105 0 67 24 53 56 -33 10 -27 24 -61 31 -75 7 -14 13 -31
13 -37 0 -7 14 -41 30 -75 16 -34 30 -66 30 -71 0 -6 11 -33 24 -61 22 -47 60
-144 73 -190 3 -10 19 -44 35 -75 24 -46 28 -51 24 -24 -3 17 -17 55 -31 84
-14 29 -25 59 -25 66 0 8 -9 31 -20 53 -11 22 -20 47 -20 57 0 10 -14 45 -30
78 -17 33 -30 65 -30 72 0 7 -14 42 -30 76 -16 35 -30 70 -30 78 0 8 -6 24
-14 35 -24 34 -39 103 -25 120 6 8 17 14 24 14 13 0 75 -120 75 -146 0 -8 13
-42 30 -76 16 -33 27 -64 24 -69 -3 -5 2 -19 10 -31 9 -12 16 -30 16 -39 0 -9
7 -22 15 -29 8 -7 15 -21 15 -31 0 -11 4 -27 9 -37 22 -40 51 -109 51 -120 0
-6 9 -27 20 -47 11 -20 20 -42 20 -50 0 -17 32 -88 43 -96 5 -3 8 -9 7 -13 -1
-3 1 -20 5 -36 l7 -30 93 0 c55 0 97 4 100 10 5 8 11 7 20 0 8 -7 20 -8 27 -4
7 5 19 9 26 10 19 3 27 13 18 21 -4 4 -11 1 -16 -7 -9 -14 -14 -7 -11 13 2 11
-14 8 -28 -5 -10 -11 -12 -10 -11 2 4 26 0 38 -16 54 -26 26 -25 52 3 65 22
10 24 9 21 -11 -2 -13 -9 -22 -16 -20 -17 3 -15 -18 3 -24 8 -4 15 -12 15 -20
0 -8 8 -13 20 -11 25 4 39 17 18 17 -9 0 -22 7 -29 16 -12 15 -11 16 11 9 36
-11 46 -23 32 -37 -18 -18 -14 -28 11 -28 16 0 18 3 8 9 -9 6 -10 11 -2 15 6
4 11 2 11 -4 0 -7 6 -10 14 -7 8 3 18 -5 25 -19 7 -15 7 -23 1 -19 -5 3 -10 1
-10 -4 0 -6 -5 -11 -11 -11 -8 0 -7 5 1 15 7 9 10 18 6 22 -8 9 -29 -12 -32
-32 -2 -13 7 -15 44 -13 26 2 50 7 54 13 5 6 8 5 8 -3 0 -19 226 -14 246 5 12
13 15 12 20 -1 3 -9 11 -13 17 -9 6 4 4 11 -7 19 -11 8 -13 14 -6 19 5 3 7 11
4 17 -4 6 -2 8 3 5 6 -4 13 -19 16 -35 6 -28 8 -29 61 -30 35 0 54 4 50 10 -4
7 0 7 12 0 11 -5 40 -10 67 -11 39 -1 47 2 47 16 1 16 2 17 13 2 11 -15 14
-14 28 5 16 21 15 22 -9 34 -13 6 -22 9 -19 5 4 -3 -5 -15 -19 -26 -20 -16
-28 -17 -37 -7 -10 10 -8 12 6 7 21 -8 22 10 3 48 l-14 27 -13 -23 c-7 -13
-12 -27 -11 -31 1 -5 -2 -8 -8 -8 -15 0 -13 7 13 46 23 33 25 33 40 16 10 -10
14 -22 10 -25 -3 -4 1 -7 10 -7 9 0 19 5 22 10 3 6 1 10 -4 10 -6 0 -11 5 -11
11 0 6 7 8 16 5 9 -3 12 -2 9 5 -4 5 -15 7 -26 4 -11 -4 -19 -2 -19 4 0 6 -9
11 -20 11 -11 0 -20 -5 -20 -12 0 -6 -3 -8 -7 -4 -5 4 1 14 11 22 11 8 15 14
9 14 -18 0 -24 31 -11 49 8 10 4 8 -10 -4 -16 -13 -37 -19 -63 -18 -49 2 -55
6 -34 23 13 11 16 11 13 -1 -4 -18 32 -13 52 8 13 14 13 15 -4 9 -13 -5 -27 2
-46 24 -26 29 -29 30 -44 15 -9 -9 -13 -21 -10 -26 3 -6 12 -2 20 8 7 10 14
13 14 7 0 -6 -7 -17 -15 -24 -11 -9 -21 -9 -45 3 -25 13 -30 13 -30 1 0 -8 5
-14 11 -14 9 0 9 -4 0 -14 -6 -7 -10 -25 -9 -40 2 -22 8 -27 40 -32 35 -6 37
-9 31 -33 -8 -36 -11 -37 -19 -7 -3 14 -12 26 -19 26 -7 0 -21 3 -29 6 -12 5
-15 2 -10 -9 3 -9 12 -13 19 -11 7 3 18 -4 25 -15 9 -17 8 -21 -5 -21 -8 0
-15 5 -15 11 0 5 -4 7 -10 4 -5 -3 -10 -1 -10 5 0 6 -4 9 -9 5 -9 -5 -11 3
-11 68 0 15 -4 28 -10 28 -5 1 -14 2 -19 3 -6 0 -16 7 -23 15 -11 12 -10 13 5
8 21 -8 23 6 3 22 -22 18 -33 -25 -12 -48 20 -22 20 -31 1 -31 -8 0 -15 9 -15
19 0 11 -7 26 -15 35 -20 19 -19 27 3 19 16 -6 16 -5 0 13 -17 17 -19 17 -30
1 -15 -19 -63 -13 -51 7 4 6 0 6 -9 -2 -15 -12 -48 -7 -48 7 0 14 23 29 36 24
8 -3 14 0 14 5 0 20 -35 17 -56 -5 -23 -25 -44 -32 -24 -8 7 8 10 16 6 16 -3
1 -10 2 -15 3 -14 2 -26 16 -14 16 13 0 4 51 -12 66 -7 7 -11 26 -10 43 2 37
2 37 -25 9 l-20 -22 0 27 c0 14 -5 29 -10 32 -6 4 -9 1 -8 -6 2 -7 -6 -14 -17
-16 -15 -3 -17 -2 -6 5 11 8 9 11 -7 17 -18 5 -19 9 -9 20 8 8 16 10 24 4 7
-6 13 -6 17 -1 3 6 -4 12 -15 15 -16 4 -19 11 -14 26 4 13 2 21 -5 21 -8 0
-10 -10 -8 -24 3 -15 0 -27 -8 -30 -9 -3 -14 2 -14 12 0 24 -26 59 -36 49 -4
-4 -2 -13 4 -19 7 -7 12 -17 12 -22 0 -6 -5 -3 -11 7 -6 9 -15 14 -21 11 -7
-5 -9 -2 -6 7 21 50 21 49 3 43 -10 -4 -28 2 -46 15 -19 14 -29 17 -29 9 0
-10 -3 -9 -9 1 -5 8 -7 21 -3 29 4 12 0 14 -18 9 -17 -4 -20 -3 -11 6 16 16
14 27 -4 21 -8 -4 -15 -1 -15 6 0 6 -4 8 -10 5 -5 -3 -10 -1 -10 4 0 6 5 11
10 11 6 0 10 4 10 9 0 5 -11 8 -25 7 -15 -2 -31 5 -42 17 -10 11 -12 17 -5 13
7 -4 12 -1 12 8 0 19 -11 20 -29 3 -11 -10 -13 -9 -8 5 3 10 2 20 -3 23 -17
10 -11 25 8 19 13 -5 14 -4 3 4 -8 6 -20 8 -27 5 -7 -2 -21 0 -31 6 -10 6 -12
11 -5 11 10 0 9 7 -1 33 -8 17 -12 39 -9 47 4 11 -2 9 -18 -5 l-23 -20 7 21
c3 11 0 28 -9 40 -19 25 -19 35 0 28 8 -4 15 -1 15 5 0 6 -7 12 -15 12 -38 3
-58 17 -51 34 2 7 -2 16 -10 19 -8 3 -14 1 -14 -5 0 -6 -4 -8 -8 -5 -5 3 -8
15 -7 28 1 13 -6 33 -17 44 -10 12 -21 37 -23 55 -3 19 -12 39 -21 46 -22 16
-29 73 -9 73 20 0 26 13 13 30 -8 12 -9 12 -4 -2 6 -19 -9 -25 -19 -8 -12 19
-16 60 -6 60 5 0 13 -4 16 -10 3 -5 13 -10 21 -10 9 0 12 5 8 12 -5 8 -2 9 10
5 10 -4 19 -7 21 -7 2 0 -3 -12 -11 -27 -16 -32 -18 -53 -4 -53 5 0 7 6 4 14
-5 14 20 46 36 46 5 0 18 -9 29 -21 18 -20 20 -20 30 -2 6 10 11 13 11 6 0 -6
-7 -19 -16 -28 -13 -12 -14 -19 -4 -30 7 -8 10 -22 6 -30 -3 -9 -2 -13 4 -10
6 3 10 2 10 -2 0 -5 6 -17 13 -27 11 -15 12 -12 10 24 -2 36 0 40 13 29 12
-10 12 -14 2 -20 -10 -7 -9 -15 5 -40 14 -25 15 -30 3 -26 -9 4 -18 1 -22 -5
-4 -7 -3 -8 4 -4 7 4 12 3 12 -3 0 -5 -6 -12 -12 -14 -7 -3 -8 -6 -2 -6 5 -1
21 9 34 21 13 12 21 16 18 8 -3 -8 -9 -23 -13 -33 -4 -10 -3 -17 4 -17 6 0 11
5 11 12 0 6 3 9 6 6 3 -4 1 -16 -5 -27 -10 -17 -9 -20 4 -15 11 5 13 2 9 -10
-4 -11 0 -16 12 -17 16 0 15 -2 -3 -9 -13 -5 -23 -12 -23 -14 0 -3 7 -3 16 1
13 5 15 2 10 -15 -8 -24 9 -38 28 -22 21 16 27 -11 8 -33 -22 -25 -11 -29 17
-6 18 15 21 22 12 33 -8 10 -9 16 -1 21 6 3 8 11 5 16 -4 5 -2 17 4 26 8 14 9
10 6 -17 -2 -21 2 -44 11 -58 8 -12 12 -28 8 -35 -4 -7 2 -4 12 6 16 15 17 19
4 27 -10 7 -11 10 -2 10 7 0 16 -8 19 -17 8 -22 23 -33 43 -33 11 1 10 4 -4
15 -17 13 -17 15 -4 15 9 0 20 -5 23 -10 5 -8 11 -7 21 1 8 7 14 7 14 1 0 -5
-7 -15 -15 -22 -20 -17 0 -32 30 -24 17 4 16 2 -5 -15 -14 -11 -21 -23 -17
-27 4 -4 7 -2 7 5 0 7 5 9 10 6 8 -5 7 -11 -1 -21 -7 -9 -8 -14 -1 -14 6 0 14
5 17 10 4 6 12 4 22 -6 22 -22 1 -43 -23 -23 -16 13 -16 11 1 -14 l18 -27 13
26 c12 23 12 31 0 55 -13 26 -13 27 5 16 10 -6 16 -13 14 -15 -2 -2 0 -14 5
-27 5 -14 5 -26 -3 -34 -8 -8 -7 -11 5 -11 9 0 19 -6 22 -12 8 -17 0 22 -9 45
-4 10 -3 17 3 17 6 0 14 -10 17 -21 5 -15 9 -18 15 -9 5 8 10 8 14 2 3 -5 -1
-13 -10 -16 -8 -3 -12 -11 -9 -16 5 -8 11 -8 20 0 10 9 16 7 24 -9 14 -25 14
-44 1 -36 -15 9 -12 -8 4 -31 15 -19 15 -19 30 1 8 11 12 22 10 24 -2 3 -11
-4 -19 -15 -12 -16 -14 -17 -15 -3 0 9 7 20 15 23 13 4 14 10 5 26 -9 16 -8
18 5 14 10 -4 15 0 15 11 0 12 -5 15 -20 10 -15 -5 -20 -2 -20 12 0 10 4 14 8
8 4 -5 14 -10 22 -10 12 0 15 -12 13 -52 -2 -47 1 -53 18 -53 25 0 36 -27 21
-51 -15 -23 -15 -32 -2 -24 6 3 10 1 10 -4 0 -6 -7 -11 -15 -11 -8 0 -15 -4
-15 -10 0 -14 12 -12 35 6 14 11 16 18 8 21 -20 7 -15 23 7 23 11 0 20 5 20
11 0 6 -7 9 -15 5 -8 -3 -15 -1 -15 4 0 6 7 10 15 10 18 0 19 12 3 28 -8 8 -8
15 1 26 8 10 9 16 1 21 -5 3 -10 1 -10 -5 0 -7 -8 -9 -21 -5 l-22 7 22 -23
c31 -33 26 -43 -9 -17 -33 24 -37 39 -15 58 12 10 13 16 4 26 -9 11 -8 18 2
31 12 15 12 16 -8 11 -20 -5 -21 -4 -13 13 6 10 17 16 25 13 8 -4 15 -1 15 4
0 6 -9 9 -20 7 -11 -2 -20 0 -20 5 0 5 -6 7 -14 4 -8 -3 -17 -1 -21 5 -3 7 0
8 9 5 21 -8 20 13 0 24 -11 6 -13 11 -5 16 6 4 11 2 11 -5 0 -7 3 -9 6 -6 9 9
-16 38 -27 31 -5 -3 -9 1 -9 10 0 8 6 17 13 20 6 3 2 3 -10 0 -19 -4 -22 -2
-16 12 4 11 2 15 -4 11 -6 -4 -10 1 -9 11 0 9 -4 16 -11 15 -7 -2 -10 4 -7 12
4 8 2 15 -4 15 -6 0 -13 -6 -15 -12 -3 -8 -6 -9 -6 -2 -1 6 11 23 26 38 16 16
20 24 10 20 -12 -4 -17 -1 -17 10 0 9 -7 19 -15 22 -19 8 -19 19 0 37 12 13 9
19 -22 51 -27 27 -39 33 -45 24 -7 -10 -8 -9 -6 2 2 8 -2 15 -7 16 -6 0 -12
13 -15 29 -4 20 -12 29 -30 32 -13 2 -29 9 -35 15 -7 8 -6 9 5 3 13 -8 13 -7
1 8 -15 18 -26 23 -16 7 3 -5 1 -10 -4 -10 -6 0 -11 4 -11 10 0 5 -6 7 -13 4
-7 -2 -24 4 -37 16 -13 11 -19 20 -15 20 5 0 16 -7 25 -15 15 -14 18 -14 30 0
11 13 10 14 -2 10 -9 -4 -23 1 -32 10 -9 9 -16 13 -16 9 0 -3 -7 -1 -15 6 -8
6 -19 9 -24 5 -7 -4 -8 1 -4 12 5 14 3 16 -7 6 -10 -9 -18 -9 -34 -1 -15 8
-21 8 -24 -1 -2 -6 -8 -11 -13 -11 -6 0 -8 4 -4 10 5 8 1 18 -22 59 -1 2 -13
-3 -27 -12 -20 -14 -26 -14 -36 -2 -9 11 -7 12 9 8 12 -3 21 -1 21 6 0 6 -4
11 -10 11 -5 0 -10 5 -10 11 0 8 4 8 15 -1 10 -9 22 -9 42 -2 27 10 28 11 6
17 -13 4 -23 11 -23 16 0 13 14 11 28 -3 9 -9 12 -9 12 1 0 7 4 10 9 7 11 -7
5 -60 -8 -64 -16 -5 -13 -19 3 -25 10 -4 13 -1 9 9 -3 7 0 15 6 15 6 1 15 2
21 3 5 0 16 10 24 21 9 11 16 14 16 8 0 -15 30 -18 30 -4 0 11 39 2 58 -12 7
-6 11 -19 9 -29 -3 -10 -1 -15 4 -12 6 3 16 0 24 -6 8 -6 19 -9 24 -6 5 4 14
-1 19 -11 9 -14 13 -15 26 -4 11 9 16 10 16 2 0 -6 -4 -11 -10 -11 -5 0 -10
-4 -10 -10 0 -5 10 -9 22 -7 14 1 22 -3 20 -11 -2 -9 3 -10 15 -3 13 6 24 4
41 -9 12 -10 22 -21 22 -25 0 -4 -7 -2 -15 5 -9 7 -15 8 -15 2 0 -16 33 -24
42 -10 7 12 9 11 12 -11 4 -29 24 -31 45 -5 17 21 19 29 9 36 -9 5 -9 8 -2 8
18 0 25 29 13 52 -6 11 -17 17 -25 14 -12 -5 -14 -1 -8 16 5 17 3 20 -10 15
-10 -4 -27 0 -40 8 -12 8 -26 12 -30 8 -4 -4 -4 1 0 12 6 14 4 17 -8 13 -11
-5 -14 1 -13 23 1 23 -1 27 -12 18 -7 -6 -10 -15 -7 -20 3 -5 -2 -6 -10 -3
-10 4 -16 1 -16 -7 0 -7 -2 -10 -5 -7 -3 2 0 19 6 36 9 27 14 30 47 28 20 -2
52 -11 71 -22 18 -10 42 -23 52 -29 11 -5 22 -18 25 -28 3 -9 10 -15 15 -12 5
4 9 1 9 -4 0 -6 7 -11 15 -11 8 0 15 -6 15 -13 0 -6 14 -18 30 -25 17 -8 30
-20 30 -27 0 -16 12 -25 40 -30 11 -2 33 -13 49 -24 16 -12 33 -21 38 -21 19
0 63 -26 68 -40 5 -16 63 -57 106 -76 15 -7 30 -17 33 -23 4 -6 12 -9 17 -6 5
4 9 1 9 -5 0 -6 12 -22 28 -35 23 -21 25 -26 12 -36 -13 -9 -12 -10 3 -5 9 3
17 1 17 -4 0 -5 9 -12 20 -15 11 -3 20 -12 20 -20 0 -7 7 -15 15 -19 19 -7 20
-45 1 -52 -15 -6 -10 -44 6 -44 5 0 7 3 4 8 -2 4 2 18 11 32 8 14 12 17 9 8
-6 -20 10 -35 17 -16 2 7 4 1 4 -14 0 -22 -4 -28 -21 -29 -17 -1 -17 -2 -3 -6
9 -2 17 -11 17 -20 0 -11 4 -13 13 -6 16 14 44 8 67 -12 10 -9 24 -15 32 -14
26 3 39 -1 33 -11 -3 -6 5 -14 19 -20 14 -5 26 -12 26 -16 0 -3 -6 -4 -14 -1
-8 3 -17 0 -19 -7 -3 -8 1 -13 11 -12 9 0 18 -7 20 -16 2 -13 -3 -18 -17 -18
-42 0 -34 -33 12 -44 16 -4 27 -13 27 -23 0 -15 -2 -15 -13 2 -8 10 -19 15
-25 11 -7 -4 7 -25 39 -57 52 -52 70 -58 49 -17 l-12 23 21 -22 c12 -13 28
-20 36 -17 8 4 15 1 15 -5 0 -6 6 -10 13 -9 6 2 11 -5 11 -14 -2 -20 12 -24
18 -6 3 9 11 8 31 -5 14 -9 39 -18 56 -19 16 -1 28 -5 25 -9 -2 -4 5 -10 16
-14 11 -4 32 -18 45 -33 23 -24 24 -24 18 -4 -6 26 6 28 33 6 16 -13 16 -15 2
-10 -10 3 -18 1 -18 -4 0 -12 12 -13 43 -1 19 8 27 6 31 -5 3 -8 12 -14 19
-14 8 0 18 -10 24 -22 8 -19 10 -15 11 25 2 41 0 47 -18 47 -32 0 -34 1 -50
15 -8 7 -27 17 -42 20 -16 4 -28 11 -28 17 0 5 5 6 12 2 7 -4 8 -3 4 5 -6 9
-11 9 -21 1 -11 -9 -23 -6 -51 14 -21 14 -42 22 -47 19 -5 -3 -13 1 -18 8 -7
11 -9 10 -9 -4 0 -11 -5 -17 -12 -14 -7 2 -12 13 -11 23 1 10 0 13 -3 7 -8
-18 -31 -16 -38 2 -3 9 -12 12 -23 9 -15 -5 -16 -4 -3 5 13 9 13 12 -2 28 -11
11 -18 13 -18 5 0 -7 5 -12 12 -12 6 0 8 -3 5 -7 -4 -3 -15 1 -24 9 -10 9 -25
18 -33 22 -8 3 -5 4 8 2 12 -2 22 0 22 5 0 5 -6 9 -14 9 -7 0 -21 12 -31 26
-9 15 -20 22 -24 17 -9 -15 -53 -24 -48 -10 2 7 13 11 23 9 18 -3 18 -3 -1 12
-19 14 -19 15 -1 16 13 0 16 5 12 17 -4 12 1 10 14 -6 11 -13 23 -21 27 -17 3
3 -2 15 -12 26 -10 11 -13 20 -7 20 7 0 12 -4 12 -9 0 -14 43 -21 56 -10 8 7
14 7 19 -1 3 -5 14 -9 23 -9 15 1 15 2 1 6 -10 2 -19 13 -22 24 -3 13 -1 17 6
12 7 -5 26 -9 42 -10 17 0 45 -3 63 -6 18 -2 35 -1 38 4 3 5 10 9 15 9 6 0 8
-4 5 -9 -3 -5 1 -12 10 -15 9 -4 13 -2 8 5 -4 7 1 9 15 4 17 -5 20 -3 15 12
-5 17 -5 17 9 0 11 -14 16 -15 20 -5 4 11 7 10 15 -1 8 -10 13 -8 26 10 12 17
19 20 24 12 10 -16 52 -5 52 13 0 10 -7 13 -24 8 -14 -3 -32 -2 -41 4 -14 7
-11 9 14 10 37 1 51 8 51 28 0 16 -16 19 -25 4 -8 -12 -45 -13 -45 -1 0 5 9 7
20 4 11 -3 20 -1 20 5 0 6 8 12 18 14 13 3 8 8 -17 21 -39 19 -56 13 -26 -10
13 -9 15 -14 5 -12 -8 2 -26 -3 -40 -10 -23 -13 -24 -15 -5 -22 15 -6 11 -8
-17 -8 -21 -1 -38 -6 -38 -11 0 -7 -6 -7 -17 -2 -10 5 -23 7 -30 5 -6 -2 -14
1 -18 6 -3 6 -13 11 -21 11 -8 0 -13 -4 -10 -8 5 -9 -177 -6 -206 4 -10 3 -18
1 -18 -5 0 -6 -12 -5 -32 3 -18 7 -38 12 -44 10 -18 -7 -89 62 -109 105 -10
23 -23 41 -29 41 -5 0 -28 18 -51 40 -64 63 -155 143 -155 137 0 -4 -10 4 -23
16 -13 12 -21 26 -19 31 3 5 -5 17 -18 26 -26 19 -21 57 5 46 9 -3 15 0 15 8
0 7 15 33 33 57 17 25 37 52 42 61 35 57 183 242 249 312 28 29 56 62 62 72 7
11 19 18 28 18 9 -1 16 3 16 9 0 6 11 23 25 37 14 14 56 55 92 93 36 37 69 67
74 67 4 0 17 10 29 22 11 12 20 16 20 9 0 -7 4 -10 10 -6 5 3 7 12 4 19 -3 7
16 30 43 52 26 21 50 41 53 44 3 3 21 17 40 30 19 13 39 30 43 37 4 7 14 13
21 13 7 0 20 8 29 18 14 15 17 41 17 140 l0 122 -1310 0 -1311 0 2 -331z m88
14 c-11 -15 -10 -15 9 1 19 17 26 16 24 -4 0 -3 8 -7 20 -7 11 -1 28 -12 39
-24 10 -12 19 -17 19 -11 0 6 7 9 15 6 8 -4 15 -12 15 -20 0 -8 7 -14 15 -14
9 0 20 -11 25 -25 8 -21 14 -24 34 -19 13 3 27 1 30 -5 4 -7 1 -8 -8 -5 -9 3
-16 2 -16 -4 0 -17 28 -22 40 -6 7 8 17 14 22 14 5 0 2 -8 -8 -17 -16 -17 -16
-18 -1 -21 9 -2 17 -8 17 -14 0 -5 -7 -8 -15 -4 -8 3 -15 2 -15 -3 0 -16 13
-21 27 -10 10 9 17 8 31 -2 15 -13 16 -12 4 3 -14 18 -7 43 9 32 5 -3 7 -9 4
-14 -6 -9 13 -24 30 -25 6 0 9 -8 7 -17 -3 -18 45 -61 59 -52 5 3 23 3 39 -1
21 -5 30 -13 30 -26 0 -12 4 -17 11 -14 6 4 8 13 5 21 -3 8 1 14 11 14 9 0 13
-3 10 -7 -4 -3 1 -16 11 -27 26 -29 35 -57 17 -50 -8 3 -17 16 -21 27 -7 21
-7 21 -14 3 -6 -19 -7 -19 -27 1 -12 12 -24 19 -26 16 -3 -2 -27 5 -55 17 -27
12 -58 23 -68 25 -11 2 -20 4 -21 4 -2 1 -5 0 -7 -1 -2 -2 -12 4 -22 14 -11 9
-38 24 -61 33 -24 10 -43 21 -43 25 0 5 -10 12 -22 15 -13 4 -35 19 -50 34
-15 14 -39 38 -55 54 -16 15 -32 27 -37 27 -14 0 -56 42 -56 55 0 13 22 37 28
30 3 -2 -1 -13 -9 -22z m1039 -52 c10 -6 13 -29 11 -80 -2 -76 3 -88 38 -94
13 -2 26 -7 30 -12 5 -4 3 -5 -4 -1 -6 3 -15 2 -18 -4 -5 -8 -11 -8 -20 0 -8
7 -20 8 -26 4 -7 -4 -9 -3 -6 3 4 6 -1 17 -10 24 -15 12 -16 12 -10 -3 3 -10
3 -18 -1 -18 -14 0 -42 69 -36 85 4 8 0 23 -7 32 -8 10 -9 14 -2 10 7 -4 14 1
18 13 3 11 12 20 18 20 7 1 -1 7 -18 15 l-30 13 30 1 c17 0 36 -3 43 -8z
m-828 -49 c0 -7 -4 -10 -10 -7 -5 3 -10 16 -10 28 0 18 2 19 10 7 5 -8 10 -21
10 -28z m27 32 c-3 -3 -12 -4 -19 -1 -8 3 -5 6 6 6 11 1 17 -2 13 -5z m753
-14 c0 -5 -7 -7 -15 -4 -8 4 -15 8 -15 10 0 2 7 4 15 4 8 0 15 -4 15 -10z
m-549 -149 c7 11 9 10 9 -3 0 -21 -47 -21 -55 -1 -3 11 0 11 16 2 17 -9 23 -8
30 2z m430 -31 c5 0 9 -4 9 -10 0 -5 -4 -10 -9 -10 -13 0 -41 29 -41 41 0 6 7
3 16 -5 8 -9 20 -16 25 -16z m315 -3 c8 3 22 -1 31 -8 9 -8 14 -9 10 -2 -14
23 143 -11 181 -40 7 -6 9 -14 3 -21 -5 -6 -11 -27 -15 -46 -5 -29 -4 -31 4
-12 5 13 14 20 20 17 7 -4 6 -13 -1 -27 -9 -17 -9 -19 7 -10 9 5 26 7 38 4 19
-5 19 -3 -4 16 -18 16 -21 21 -9 22 9 0 19 -3 22 -7 11 -10 61 -11 74 0 21 15
5 26 -31 20 -25 -4 -35 -1 -40 12 -5 15 -4 16 8 6 11 -9 15 -9 18 0 3 9 12 8
36 -3 20 -11 32 -12 35 -5 2 6 9 7 16 3 10 -6 6 -14 -15 -32 -24 -19 -27 -25
-16 -36 7 -7 13 -8 12 -3 -6 28 1 37 26 32 18 -3 24 -1 20 9 -3 8 0 11 10 7 7
-3 14 -13 14 -22 0 -12 2 -13 9 -3 4 8 26 14 47 15 33 2 39 -1 42 -20 4 -25
-10 -30 -88 -36 -25 -1 -51 -6 -58 -11 -6 -4 -12 -3 -12 1 0 5 -9 9 -20 10
-13 1 -18 -2 -14 -9 4 -7 2 -8 -4 -4 -7 4 -12 14 -12 22 0 8 -5 14 -11 14 -6
0 -8 -9 -4 -21 6 -19 5 -20 -15 -9 -24 13 -55 6 -45 -10 9 -14 -18 -13 -33 2
-9 9 -12 9 -12 1 0 -8 -22 -11 -67 -8 -38 2 -81 3 -96 4 -16 1 -26 5 -22 11 3
5 0 7 -8 4 -14 -5 -33 24 -22 34 3 3 5 0 5 -7 0 -8 7 -10 21 -6 39 13 67 13
63 0 -3 -7 4 -11 18 -10 13 1 26 -3 30 -9 5 -7 8 -5 8 5 0 9 -10 19 -22 23
-19 5 -20 8 -8 15 12 9 12 11 -3 17 -9 3 -14 10 -11 16 3 5 11 5 19 -2 9 -8
14 -7 18 5 5 11 -1 14 -26 11 -18 -2 -38 1 -44 6 -7 6 -13 7 -13 3 0 -4 -7 -2
-15 5 -8 6 -20 9 -27 5 -7 -4 -4 1 6 9 11 9 17 16 13 16 -4 0 -8 -1 -9 -2 -6
-5 -68 37 -68 46 0 6 5 5 11 -1 6 -6 18 -9 25 -6z m-581 -70 c0 -11 7 -22 15
-25 12 -4 13 -2 4 9 -9 11 -8 17 3 28 14 12 15 12 11 0 -3 -8 2 -23 11 -33 10
-12 11 -17 2 -11 -7 4 -16 3 -20 -4 -12 -19 -50 24 -44 49 7 25 18 17 18 -13z
m849 -2 c3 -8 1 -15 -4 -15 -6 0 -10 7 -10 15 0 8 2 15 4 15 2 0 6 -7 10 -15z
m-733 -10 c15 -14 18 -14 32 0 20 19 91 21 84 2 -4 -10 6 -13 41 -11 25 2 54
-2 65 -8 14 -7 17 -7 13 1 -8 13 4 14 23 2 8 -5 10 -14 6 -21 -6 -10 -2 -11
16 -7 13 3 35 0 49 -8 24 -13 24 -14 -15 -10 -82 8 -101 12 -122 24 -16 8 -23
8 -23 1 0 -7 -8 -9 -22 -4 -13 4 -52 9 -88 11 -74 4 -100 6 -100 9 0 9 13 34
18 34 3 0 13 -7 23 -15z m29 11 c0 -11 -19 -15 -25 -6 -3 5 1 10 9 10 9 0 16
-2 16 -4z m525 -46 c3 -5 1 -10 -4 -10 -6 0 -11 5 -11 10 0 6 2 10 4 10 3 0 8
-4 11 -10z m-115 -34 c0 -2 -7 -7 -16 -10 -8 -3 -12 -2 -9 4 6 10 25 14 25 6z
m-216 -41 c21 -16 21 -17 -11 -34 -26 -13 -56 -4 -49 16 3 8 6 19 6 24 0 14
33 10 54 -6z m-69 -5 c3 -5 2 -10 -4 -10 -5 0 -13 5 -16 10 -3 6 -2 10 4 10 5
0 13 -4 16 -10z m5 -64 c0 -11 -19 -15 -25 -6 -3 5 1 10 9 10 9 0 16 -2 16 -4z
m-910 -46 c0 -5 -2 -10 -4 -10 -3 0 -8 5 -11 10 -3 6 -1 10 4 10 6 0 11 -4 11
-10z m444 -65 c-4 -8 -11 -15 -16 -15 -6 0 -5 6 2 15 7 8 14 15 16 15 2 0 1
-7 -2 -15z m-374 -15 c0 12 3 12 11 -2 7 -12 6 -25 -2 -40 -12 -23 -13 -23
-26 10 -7 18 -10 38 -7 44 5 8 10 5 15 -8 5 -13 8 -14 9 -4z m-72 -26 c-4 -3
-12 5 -18 18 -12 22 -12 22 6 6 10 -10 15 -20 12 -24z m910 23 c7 -5 10 -12 7
-17 -3 -5 -1 -11 5 -15 20 -12 10 -26 -10 -15 -16 8 -19 17 -14 33 6 19 5 20
-8 10 -14 -12 -28 -8 -28 9 0 9 29 6 48 -5z m-558 -22 c11 -13 10 -14 -4 -9
-9 3 -16 10 -16 15 0 13 6 11 20 -6z m630 -20 c0 -5 4 -4 9 4 8 12 12 12 26
-2 15 -16 15 -17 -6 -17 -22 0 -22 -1 -4 -14 17 -13 15 -14 -22 -12 -23 0 -40
3 -38 5 2 1 -1 14 -6 28 -5 14 -7 29 -4 34 7 10 45 -11 45 -26z m-487 5 c-3
-11 -7 -20 -9 -20 -2 0 -4 9 -4 20 0 11 4 20 9 20 5 0 7 -9 4 -20z m67 1 c1
-16 30 -42 40 -36 8 5 5 12 -7 22 -16 13 -16 13 5 3 15 -8 21 -17 18 -27 -5
-12 -3 -13 6 -5 10 8 13 3 13 -23 l0 -34 -22 26 c-18 20 -23 22 -23 10 0 -10
-7 -17 -16 -17 -10 0 -14 5 -10 16 3 8 2 13 -3 9 -5 -3 -20 -1 -33 4 -12 6
-18 10 -11 10 7 1 18 11 24 24 11 20 11 21 -5 8 -21 -17 -33 -7 -15 12 13 14
39 13 39 -2z m-470 -41 c0 -5 -5 -10 -11 -10 -5 0 -7 5 -4 10 3 6 8 10 11 10
2 0 4 -4 4 -10z m-65 -10 c3 -5 1 -10 -4 -10 -6 0 -11 5 -11 10 0 6 2 10 4 10
3 0 8 -4 11 -10z m99 -5 c-6 -16 -24 -21 -24 -7 0 11 11 22 21 22 5 0 6 -7 3
-15z m656 -35 c0 -5 -4 -10 -9 -10 -6 0 -13 5 -16 10 -3 6 1 10 9 10 9 0 16
-4 16 -10z m-632 -17 c-12 -15 -22 -18 -14 -4 4 5 0 11 -6 14 -7 3 -3 4 9 4
17 -1 19 -4 11 -14z m-78 -42 c0 -21 -16 -2 -24 29 -7 24 -6 24 8 6 9 -11 16
-27 16 -35z m175 19 c3 -5 -1 -10 -10 -10 -9 0 -13 5 -10 10 3 6 8 10 10 10 2
0 7 -4 10 -10z m-102 -25 c-7 -21 -13 -19 -13 6 0 11 4 18 10 14 5 -3 7 -12 3
-20z m-132 -23 c-4 -1 -6 -14 -3 -27 2 -14 2 -25 -2 -25 -5 0 -36 65 -36 75 0
2 11 -2 25 -8 13 -7 21 -13 16 -15z m769 -13 c0 -5 3 -8 8 -8 26 4 45 -2 36
-11 -8 -8 -19 -7 -37 1 -27 12 -47 42 -21 32 7 -3 14 -9 14 -14z m425 11 c3
-5 1 -10 -4 -10 -6 0 -11 5 -11 10 0 6 2 10 4 10 3 0 8 -4 11 -10z m-684 -31
c9 -17 8 -23 -2 -30 -21 -13 -26 -11 -23 14 1 12 3 25 3 30 2 13 10 7 22 -14z
m-411 -43 c-1 -19 -2 -19 -15 4 -20 35 -19 62 0 36 8 -11 15 -29 15 -40z m-84
10 c0 -14 -5 -21 -9 -17 -4 4 -5 15 -1 24 9 24 12 21 10 -7z m1146 -28 c-7 -7
-12 -8 -12 -2 0 14 12 26 19 19 2 -3 -1 -11 -7 -17z m-704 -46 c-4 -2 -5 -9
-2 -14 4 -7 2 -8 -4 -4 -6 4 -8 14 -5 23 4 10 2 14 -4 10 -7 -5 -9 0 -6 14 5
20 6 20 17 -3 7 -13 8 -25 4 -26z m-424 22 c9 -24 2 -26 -12 -4 -7 11 -8 20
-3 20 5 0 12 -7 15 -16z m938 -16 c-7 -7 -12 -8 -12 -2 0 14 12 26 19 19 2 -3
-1 -11 -7 -17z m88 -85 c25 -21 26 -32 3 -29 -10 2 -22 -2 -26 -8 -5 -6 -5 0
-2 13 6 19 4 23 -9 18 -9 -4 -16 -2 -16 2 0 8 9 14 27 20 2 1 12 -7 23 -16z
m-563 -20 c-4 -3 -2 -12 4 -20 8 -9 8 -13 1 -13 -6 0 -14 5 -17 10 -6 10 2 30
12 30 4 0 3 -3 0 -7z m217 -8 c3 -8 1 -15 -3 -15 -5 0 -11 7 -15 15 -3 8 -1
15 3 15 5 0 11 -7 15 -15z m-414 -30 c15 -18 5 -34 -11 -18 -18 18 -69 -14
-69 -43 0 -14 -4 -22 -10 -19 -18 11 -11 32 22 64 36 35 50 38 68 16z m780
-42 c0 -7 5 -13 11 -13 5 0 7 -4 4 -10 -3 -5 -11 -10 -16 -10 -6 0 -8 4 -5 9
3 4 -1 17 -9 27 -8 10 -15 25 -15 33 0 11 4 9 15 -5 8 -10 15 -25 15 -31z
m-1040 13 c0 -2 -7 -6 -15 -10 -8 -3 -15 -1 -15 4 0 6 7 10 15 10 8 0 15 -2
15 -4z m735 -24 c1 -13 -1 -25 -5 -27 -4 -3 -7 6 -6 18 1 12 -6 25 -14 29 -11
6 -10 7 4 5 12 -1 20 -11 21 -25z m-425 3 c10 -12 10 -15 -3 -15 -8 0 -17 7
-21 15 -3 8 -2 15 3 15 5 0 14 -7 21 -15z m-350 -30 c-7 -9 -15 -13 -17 -11
-6 6 20 36 26 30 2 -2 -2 -10 -9 -19z m330 -16 c0 -5 -7 -6 -15 -3 -8 4 -15
10 -15 16 0 5 -4 6 -10 3 -5 -3 -10 -11 -10 -16 0 -6 5 -7 12 -3 8 5 9 2 5
-10 -5 -12 -3 -15 6 -9 22 14 40 12 53 -5 13 -18 3 -33 -29 -45 -29 -11 -75
82 -51 106 8 7 54 -22 54 -34z m500 31 c0 -5 -5 -10 -11 -10 -5 0 -7 5 -4 10
3 6 8 10 11 10 2 0 4 -4 4 -10z m-775 -48 c-8 -8 -25 10 -25 26 0 13 2 13 14
-4 8 -10 13 -21 11 -22z m745 13 c0 -8 -4 -15 -10 -15 -5 0 -7 7 -4 15 4 8 8
15 10 15 2 0 4 -7 4 -15z m90 5 c0 -5 -2 -10 -4 -10 -3 0 -8 5 -11 10 -3 6 -1
10 4 10 6 0 11 -4 11 -10z m-863 -22 c31 -11 45 -28 23 -28 -6 0 -5 -8 2 -20
11 -17 10 -22 -2 -30 -11 -7 -18 -3 -27 18 -7 15 -12 22 -13 15 0 -7 -7 -10
-17 -6 -15 6 -14 8 5 16 27 12 28 27 2 27 -11 0 -20 -5 -20 -12 0 -6 -2 -9 -5
-6 -6 6 5 38 13 38 3 0 21 -5 39 -12z m174 2 c23 -13 25 -40 2 -40 -9 0 -13 3
-10 7 4 3 0 15 -10 25 -18 20 -11 23 18 8z m656 -22 c-3 -8 -6 -5 -6 6 -1 11
2 17 5 13 3 -3 4 -12 1 -19z m-77 -10 c-21 -23 -34 -21 -25 3 3 8 14 15 25 16
19 2 19 1 0 -19z m-820 2 c0 -5 -2 -10 -4 -10 -3 0 -8 5 -11 10 -3 6 -1 10 4
10 6 0 11 -4 11 -10z m955 0 c3 -5 1 -10 -4 -10 -6 0 -11 5 -11 10 0 6 2 10 4
10 3 0 8 -4 11 -10z m29 -28 c2 -4 -4 -8 -14 -8 -10 0 -16 4 -14 8 3 4 9 8 14
8 5 0 11 -4 14 -8z m-694 -34 c0 -17 -2 -18 -15 -8 -8 7 -15 9 -15 5 0 -5 -3
-6 -6 -2 -8 8 19 36 29 30 4 -2 7 -13 7 -25z m880 12 c0 -5 -5 -10 -11 -10 -5
0 -7 5 -4 10 3 6 8 10 11 10 2 0 4 -4 4 -10z m-727 -29 c19 -32 22 -61 8 -61
-5 0 -12 6 -15 13 -3 7 -5 6 -3 -3 3 -23 -17 -27 -22 -4 -1 10 -10 27 -18 36
-13 14 -13 20 -3 33 19 22 34 18 53 -14z m-433 4 c-7 -8 -17 -15 -22 -15 -6 0
-5 7 2 15 7 8 17 15 22 15 6 0 5 -7 -2 -15z m1020 -5 c0 -5 -5 -10 -11 -10 -5
0 -7 5 -4 10 3 6 8 10 11 10 2 0 4 -4 4 -10z m-675 -40 c-5 -15 -3 -18 9 -14
9 3 19 -3 26 -15 12 -23 5 -45 -11 -35 -5 3 -7 10 -4 15 4 5 -2 12 -12 16 -26
9 -33 24 -20 39 17 19 19 17 12 -6z m2135 6 c0 -3 -4 -8 -10 -11 -5 -3 -10 -1
-10 4 0 6 5 11 10 11 6 0 10 -2 10 -4z m-1280 -41 c7 -9 8 -15 2 -15 -5 0 -12
7 -16 15 -3 8 -4 15 -2 15 2 0 9 -7 16 -15z m-1140 -155 c0 -5 -4 -10 -10 -10
-5 0 -10 5 -10 10 0 6 5 10 10 10 6 0 10 -4 10 -10z m-30 -10 c0 -5 -4 -10
-10 -10 -5 0 -10 5 -10 10 0 6 5 10 10 10 6 0 10 -4 10 -10z m-30 -4 c0 -2 -7
-9 -15 -16 -13 -11 -14 -10 -9 4 5 14 24 23 24 12z m33 -31 c-3 -9 -8 -14 -10
-11 -3 3 -2 9 2 15 9 16 15 13 8 -4z m-44 -17 c-9 -16 -14 -19 -17 -9 -2 7 2
17 9 22 20 13 21 11 8 -13z m205 -78 c3 -21 3 -52 0 -69 -7 -31 -7 -31 -28
-14 -16 14 -18 15 -8 2 11 -15 9 -17 -13 -15 -15 0 -25 7 -25 16 -1 11 -5 10
-16 -5 -15 -19 -16 -16 -10 35 10 74 26 98 64 92 26 -3 31 -9 36 -42z m801 10
c3 -5 1 -10 -4 -10 -6 0 -11 5 -11 10 0 6 2 10 4 10 3 0 8 -4 11 -10z m-892
-135 c-3 -9 -8 -14 -10 -11 -3 3 -2 9 2 15 9 16 15 13 8 -4z m77 6 c0 -5 -7
-11 -15 -15 -15 -5 -20 5 -8 17 9 10 23 9 23 -2z m133 -56 c-3 -9 -8 -14 -10
-11 -3 3 -2 9 2 15 9 16 15 13 8 -4z m617 -55 c0 -5 -2 -10 -4 -10 -3 0 -8 5
-11 10 -3 6 -1 10 4 10 6 0 11 -4 11 -10z m270 0 c0 -5 -4 -10 -10 -10 -5 0
-10 5 -10 10 0 6 5 10 10 10 6 0 10 -4 10 -10z m-290 -35 c19 -22 8 -25 -12
-3 -10 10 -14 18 -9 18 5 0 14 -7 21 -15z m-1 -52 c3 -2 -7 -2 -20 -1 -16 1
-25 8 -25 20 0 16 1 16 21 0 11 -9 22 -18 24 -19z m-729 7 c8 -5 11 -12 7 -16
-4 -4 -15 0 -24 9 -18 18 -8 23 17 7z m760 -10 c0 -5 -12 -16 -26 -23 -17 -9
-23 -17 -15 -21 6 -4 11 -2 11 3 0 6 7 11 16 11 14 0 14 -3 4 -15 -16 -19 -25
-19 -44 1 -20 19 -21 35 -2 28 8 -3 20 3 27 15 13 19 29 20 29 1z m30 0 c0 -5
-2 -10 -4 -10 -3 0 -8 5 -11 10 -3 6 -1 10 4 10 6 0 11 -4 11 -10z m300 0 c0
-5 -4 -10 -10 -10 -5 0 -10 5 -10 10 0 6 5 10 10 10 6 0 10 -4 10 -10z m63
-33 c-4 -7 1 -6 10 2 21 17 42 9 58 -21 9 -19 9 -21 -2 -10 -16 14 -39 16 -39
2 0 -5 5 -10 11 -10 24 0 68 -41 62 -57 -6 -14 -7 -14 -19 2 -7 9 -18 14 -24
10 -9 -5 -10 -1 -5 15 6 19 4 22 -9 17 -9 -4 -16 -3 -16 1 0 4 -4 13 -9 21 -8
12 -13 12 -24 3 -12 -10 -16 -9 -21 3 -3 9 -2 13 4 10 6 -3 7 1 4 10 -6 14 -9
14 -30 0 -26 -17 -59 -20 -49 -5 3 6 15 10 26 10 10 0 19 7 19 14 0 12 6 13
30 5 18 -7 27 -15 23 -22z m-293 -8 c0 -18 -20 -18 -29 0 -9 16 -8 18 9 14 11
-3 20 -9 20 -14z m71 -50 c14 -16 29 -25 38 -21 14 5 14 4 1 -11 -14 -15 -17
-13 -42 16 -15 18 -34 46 -43 62 l-16 30 20 -25 c11 -14 30 -37 42 -51z m-134
55 c-3 -3 -12 -4 -19 -1 -8 3 -5 6 6 6 11 1 17 -2 13 -5z m598 -12 c-3 -3 -11
0 -18 7 -9 10 -8 11 6 5 10 -3 15 -9 12 -12z m-591 -32 c3 0 3 7 0 15 -4 9 0
15 10 15 22 0 20 -16 -6 -42 l-21 -21 -9 24 c-7 19 -11 21 -18 9 -8 -12 -10
-10 -10 9 0 22 1 23 25 7 13 -9 27 -16 29 -16z m496 9 c0 -6 -4 -7 -10 -4 -5
3 -10 11 -10 16 0 6 5 7 10 4 6 -3 10 -11 10 -16z m74 5 c9 -23 7 -34 -4 -34
-5 0 -10 7 -10 16 0 8 -4 12 -10 9 -11 -7 -14 8 -3 18 11 11 20 8 27 -9z m74
-9 c3 -3 -4 -5 -16 -5 -12 0 -22 -4 -22 -10 0 -5 -4 -10 -10 -10 -5 0 -10 9
-10 20 0 17 5 19 26 16 15 -3 29 -8 32 -11z m-798 -5 c0 -5 -2 -10 -4 -10 -3
0 -8 5 -11 10 -3 6 -1 10 4 10 6 0 11 -4 11 -10z m850 -25 c0 -18 -4 -23 -16
-18 -9 3 -11 9 -6 12 5 3 8 14 6 24 -1 9 2 15 7 11 5 -3 9 -16 9 -29z m-1215
15 c-3 -5 -2 -10 4 -10 6 0 8 -7 4 -16 -5 -15 -7 -15 -15 0 -8 15 -4 36 8 36
3 0 2 -4 -1 -10z m887 -4 c16 -12 16 -15 2 -32 -15 -18 -15 -18 -10 0 4 11 0
24 -11 32 -10 7 -13 13 -8 13 6 0 18 -6 27 -13z m-1012 -26 c0 -5 -4 -10 -10
-10 -5 0 -10 5 -10 10 0 6 5 10 10 10 6 0 10 -4 10 -10z m1147 -62 c13 -15 13
-17 -5 -27 -15 -8 -23 -6 -36 8 -9 9 -16 22 -16 27 0 5 7 0 15 -10 20 -27 31
-12 13 16 -12 18 -13 27 -4 41 10 16 11 15 14 -10 2 -15 10 -36 19 -45z m-506
42 c6 0 7 5 4 10 -3 6 -1 10 4 10 13 0 13 -3 5 -24 -5 -13 -9 -14 -20 -5 -8 6
-14 17 -13 23 0 7 2 6 6 -1 2 -7 9 -13 14 -13z m344 0 c3 -5 1 -10 -4 -10 -6
0 -11 5 -11 10 0 6 2 10 4 10 3 0 8 -4 11 -10z m76 -11 c8 -16 8 -24 -2 -33
-9 -8 -11 -7 -7 4 6 17 -16 42 -28 32 -4 -4 -4 -1 0 6 11 18 24 15 37 -9z
m269 6 c16 -19 0 -19 -26 0 -16 12 -16 14 -3 15 9 0 22 -7 29 -15z m-1202 -36
c-3 -8 -7 -3 -11 10 -4 17 -3 21 5 13 5 -5 8 -16 6 -23z m-98 -5 c0 -8 -4 -14
-10 -14 -5 0 -10 9 -10 21 0 11 5 17 10 14 6 -3 10 -13 10 -21z m1278 13 c19
-15 14 -29 -7 -17 -25 13 -41 13 -41 0 0 -5 7 -10 15 -10 8 0 15 -4 15 -10 0
-15 -26 -12 -40 5 -24 29 26 57 58 32z m-1150 -32 c-3 -3 -9 2 -12 12 -6 14
-5 15 5 6 7 -7 10 -15 7 -18z m742 5 c-24 -15 -37 -11 -16 5 11 8 22 12 25 9
3 -3 -1 -9 -9 -14z m87 5 c0 -8 -4 -12 -9 -9 -5 3 -6 10 -3 15 9 13 12 11 12
-6z m243 -15 c0 -11 -5 -20 -11 -20 -5 0 -7 5 -3 11 3 6 0 15 -7 20 -11 7 -10
9 4 9 10 0 17 -8 17 -20z m235 10 c3 -5 1 -10 -4 -10 -6 0 -11 5 -11 10 0 6 2
10 4 10 3 0 8 -4 11 -10z m-390 -20 c3 -5 1 -10 -4 -10 -6 0 -11 5 -11 10 0 6
2 10 4 10 3 0 8 -4 11 -10z"/>
<path d="M540 2020 c8 -5 20 -10 25 -10 6 0 3 5 -5 10 -8 5 -19 10 -25 10 -5
0 -3 -5 5 -10z"/>
<path d="M1080 2141 c0 -5 7 -15 17 -22 15 -13 15 -12 4 9 -12 23 -21 28 -21
13z"/>
<path d="M1466 1961 c-16 -9 -32 -23 -34 -31 -5 -13 -3 -13 12 -1 14 12 16 12
10 -3 -3 -9 -11 -16 -17 -16 -6 0 -7 -3 -4 -6 9 -10 34 14 51 47 8 16 14 29
13 28 -1 0 -15 -8 -31 -18z"/>
<path d="M1456 1885 c-9 -26 -7 -32 5 -12 6 10 9 21 6 23 -2 3 -7 -2 -11 -11z"/>
<path d="M1675 1890 c-3 -5 -1 -10 4 -10 6 0 11 5 11 10 0 6 -2 10 -4 10 -3 0
-8 -4 -11 -10z"/>
<path d="M1700 1879 c0 -5 5 -7 10 -4 6 3 10 8 10 11 0 2 -4 4 -10 4 -5 0 -10
-5 -10 -11z"/>
<path d="M1330 1870 c0 -5 4 -10 9 -10 6 0 13 5 16 10 3 6 -1 10 -9 10 -9 0
-16 -4 -16 -10z"/>
<path d="M105 980 c-3 -5 -1 -10 4 -10 6 0 11 5 11 10 0 6 -2 10 -4 10 -3 0
-8 -4 -11 -10z"/>
<path d="M2145 1946 c-18 -13 -18 -14 4 -25 12 -7 27 -10 34 -7 7 2 4 5 -5 5
-19 1 -26 21 -8 21 6 0 10 5 10 10 0 14 -13 12 -35 -4z"/>
<path d="M5 1920 c3 -5 8 -10 11 -10 2 0 4 5 4 10 0 6 -5 10 -11 10 -5 0 -7
-4 -4 -10z"/>
<path d="M2490 1930 c-7 -34 -7 -60 1 -60 5 0 9 5 9 10 0 6 7 10 15 10 8 0 15
5 15 12 0 6 -3 8 -7 5 -3 -4 -12 1 -19 11 -7 9 -14 15 -14 12z"/>
<path d="M900 1493 c0 -16 16 -17 26 -2 4 8 9 7 15 -2 7 -11 9 -11 9 2 0 12
-8 16 -25 15 -14 0 -25 -7 -25 -13z"/>
<path d="M855 1470 c-3 -5 -1 -10 4 -10 6 0 11 5 11 10 0 6 -2 10 -4 10 -3 0
-8 -4 -11 -10z"/>
<path d="M1030 1416 c0 -2 8 -10 18 -17 15 -13 16 -12 3 4 -13 16 -21 21 -21
13z"/>
<path d="M2230 1309 c0 -60 3 -80 13 -77 7 3 13 28 15 66 2 36 8 62 15 65 7 2
2 2 -10 0 -17 -2 -21 1 -17 12 4 8 1 15 -5 15 -7 0 -11 -28 -11 -81z"/>
<path d="M1288 1373 c7 -3 16 -2 19 1 4 3 -2 6 -13 5 -11 0 -14 -3 -6 -6z"/>
<path d="M1270 1345 c0 -18 26 -20 36 -3 4 7 3 8 -4 4 -7 -4 -12 -2 -12 3 0 6
-4 11 -10 11 -5 0 -10 -7 -10 -15z"/>
<path d="M1349 1337 c15 -19 2 -24 -16 -6 -8 8 -13 5 -18 -10 -3 -12 -14 -21
-23 -22 -13 0 -14 -2 -3 -6 8 -3 20 2 28 13 10 14 13 14 13 3 0 -8 -6 -21 -12
-28 -11 -11 -10 -13 5 -8 11 4 16 3 12 -3 -3 -6 -1 -10 5 -10 8 0 10 9 6 24
-4 17 0 25 14 32 20 9 20 9 -2 23 -21 13 -22 13 -9 -2z"/>
<path d="M2300 1320 c0 -5 5 -10 11 -10 5 0 7 5 4 10 -3 6 -8 10 -11 10 -2 0
-4 -4 -4 -10z"/>
<path d="M629 1303 c-13 -16 -12 -17 4 -4 9 7 17 15 17 17 0 8 -8 3 -21 -13z"/>
<path d="M1360 1292 c0 -15 11 -21 27 -15 12 5 12 7 1 14 -17 11 -28 11 -28 1z"/>
<path d="M637 1269 c7 -7 15 -10 18 -7 3 3 -2 9 -12 12 -14 6 -15 5 -6 -5z"/>
<path d="M1353 1253 c-7 -3 -13 -9 -13 -15 0 -6 6 -8 14 -5 8 3 20 -1 28 -10
10 -12 10 -17 1 -20 -7 -2 -10 -10 -7 -18 3 -8 12 -11 20 -8 22 8 16 -14 -8
-33 -18 -13 -19 -15 -4 -10 14 5 17 2 12 -9 -4 -12 0 -14 21 -10 16 2 31 -1
35 -8 6 -9 8 -9 8 1 0 6 5 12 11 12 8 0 8 -4 0 -14 -7 -8 -21 -12 -31 -9 -14
4 -20 0 -20 -11 0 -9 6 -13 14 -10 11 4 14 -5 14 -38 -1 -63 1 -70 13 -62 8 4
7 9 -2 15 -10 6 -10 9 -2 9 7 0 17 -9 23 -19 13 -26 13 -31 -5 -31 -8 0 -15
-4 -15 -10 0 -5 3 -9 8 -9 29 5 43 -2 37 -20 -3 -11 -1 -22 5 -26 5 -3 10 -12
10 -18 0 -8 -3 -8 -8 -2 -4 6 -13 11 -20 13 -7 1 3 -14 23 -34 21 -20 42 -33
50 -30 17 6 32 -14 17 -23 -7 -4 -8 -12 -2 -21 8 -12 10 -12 10 4 0 11 3 17 6
14 3 -4 19 -2 35 2 26 8 28 7 19 -10 -13 -24 -13 -30 0 -30 6 0 10 7 10 15 0
8 14 22 31 30 35 19 32 27 -11 30 -19 2 -34 -3 -41 -14 -8 -12 -8 -11 -3 9 4
14 10 27 15 30 4 3 4 12 -1 19 -4 8 -5 21 -2 30 5 14 4 14 -10 1 -11 -10 -13
-20 -7 -32 6 -11 5 -19 -3 -24 -7 -4 -10 -4 -6 1 4 4 0 15 -9 23 -10 11 -12
17 -4 20 6 2 11 10 11 18 0 9 -4 13 -9 10 -4 -3 -16 1 -27 8 -10 8 -25 11 -33
8 -9 -3 -12 -1 -7 6 9 15 33 16 38 1 2 -7 8 -6 15 3 8 9 9 19 2 28 -8 13 -10
13 -19 0 -9 -13 -13 -11 -30 10 -11 14 -25 31 -30 38 -7 7 -7 12 -1 12 5 0 13
-4 16 -10 8 -13 45 -13 45 -1 0 5 3 18 7 28 4 12 0 10 -15 -7 -12 -14 -21 -20
-22 -15 0 6 6 17 13 24 10 11 8 11 -13 1 -22 -12 -24 -12 -12 3 11 13 10 19
-5 36 -9 12 -22 21 -27 21 -5 0 -1 -9 9 -20 15 -17 16 -23 5 -33 -7 -6 -10 -7
-7 -1 3 6 -5 27 -18 46 -13 20 -21 38 -18 42 4 3 1 6 -4 6 -6 0 -13 -5 -15
-10 -2 -6 -9 -1 -17 11 -11 19 -11 21 3 16 9 -4 23 -4 31 -1 12 5 10 10 -10
26 -14 11 -23 24 -20 29 4 5 2 9 -4 9 -5 0 -11 -5 -13 -12 -2 -6 -10 -8 -17
-4 -7 5 -10 14 -7 22 3 7 1 16 -4 19 -6 4 -10 1 -10 -6 0 -8 -4 -8 -12 -2 -7
6 -19 8 -25 6z m104 -70 c-8 -7 -37 9 -31 19 3 5 12 4 20 -3 8 -6 13 -14 11
-16z m18 -112 c3 -5 2 -12 -3 -15 -5 -3 -9 1 -9 9 0 17 3 19 12 6z m55 -171
c0 -5 -5 -10 -11 -10 -5 0 -7 5 -4 10 3 6 8 10 11 10 2 0 4 -4 4 -10z m30 -44
c0 -2 -7 -6 -15 -10 -8 -3 -15 -1 -15 4 0 6 7 10 15 10 8 0 15 -2 15 -4z m10
-26 c0 -5 -2 -10 -4 -10 -3 0 -8 5 -11 10 -3 6 -1 10 4 10 6 0 11 -4 11 -10z
m30 6 c0 -3 -4 -8 -10 -11 -5 -3 -10 -1 -10 4 0 6 5 11 10 11 6 0 10 -2 10 -4z"/>
<path d="M2117 1238 c-7 -24 1 -68 12 -68 8 0 8 76 0 85 -4 3 -9 -4 -12 -17z"/>
<path d="M550 1240 c0 -5 5 -10 10 -10 6 0 10 5 10 10 0 6 -4 10 -10 10 -5 0
-10 -4 -10 -10z"/>
<path d="M1976 1217 c-19 -14 -19 -15 3 -46 13 -18 17 -29 8 -26 -7 3 -22 -3
-32 -15 -19 -21 -8 -29 13 -8 10 10 16 8 30 -6 16 -18 16 -18 0 -13 -15 5 -17
0 -15 -32 1 -21 10 -49 19 -62 l16 -24 -5 30 -4 30 15 -25 c8 -14 12 -28 10
-32 -3 -5 0 -8 6 -8 7 0 10 7 7 14 -4 10 -1 13 9 9 8 -3 13 -12 10 -19 -3 -8
0 -11 10 -7 11 4 12 9 5 16 -18 18 -12 31 6 16 9 -8 14 -9 10 -3 -7 12 21 29
31 19 3 -3 -1 -5 -9 -5 -11 0 -11 -2 -1 -8 9 -6 7 -14 -8 -30 -12 -12 -16 -22
-11 -22 6 0 14 6 18 14 6 12 18 13 57 5 52 -10 63 -15 53 -25 -4 -4 -13 -1
-21 5 -8 7 -25 11 -38 8 -20 -4 -20 -4 5 -6 15 0 27 -5 27 -11 0 -5 11 -10 24
-10 19 0 23 4 19 20 -3 11 -10 20 -17 20 -12 0 14 20 27 20 4 0 7 -11 7 -25 0
-18 5 -25 20 -25 11 0 20 5 20 11 0 5 -4 7 -10 4 -5 -3 -10 4 -10 15 0 14 -8
24 -20 27 -19 5 -20 7 -5 23 11 12 13 20 6 25 -6 3 -14 -1 -17 -9 -3 -9 -10
-16 -16 -16 -5 0 -7 4 -3 9 3 6 -3 14 -12 20 -16 9 -15 11 7 12 14 1 31 1 39
0 7 -2 10 2 7 7 -3 6 -23 8 -45 5 -23 -3 -41 -1 -45 6 -4 6 -16 11 -26 11 -10
0 -21 5 -23 10 -3 6 -4 5 -3 -2 1 -7 13 -15 27 -18 24 -6 24 -6 -4 -14 -32 -8
-67 0 -67 15 0 6 -6 7 -12 4 -7 -4 1 6 17 20 17 15 23 25 14 22 -9 -3 -25 2
-35 11 -11 9 -28 17 -38 17 -11 0 -20 6 -22 13 -1 7 0 8 3 2 5 -12 23 -14 23
-2 0 4 -8 17 -18 30 -15 20 -20 21 -36 9z m41 -149 c-3 -8 -6 -5 -6 6 -1 11 2
17 5 13 3 -3 4 -12 1 -19z m45 -40 c-6 -6 -15 -8 -19 -4 -4 4 -1 11 7 16 19
12 27 3 12 -12z m125 16 c-3 -3 -12 -4 -19 -1 -8 3 -5 6 6 6 11 1 17 -2 13 -5z"/>
<path d="M2523 1223 c-9 -3 -10 -10 -4 -22 5 -9 9 -23 9 -31 -3 -45 3 -90 12
-90 6 0 10 32 10 75 0 73 -2 79 -27 68z"/>
<path d="M590 1216 c0 -2 7 -7 16 -10 8 -3 12 -2 9 4 -6 10 -25 14 -25 6z"/>
<path d="M1835 1210 c-19 -8 -19 -9 3 -9 12 -1 22 4 22 9 0 6 -1 10 -2 9 -2 0
-12 -4 -23 -9z"/>
<path d="M1926 1211 c-3 -5 0 -13 7 -19 10 -8 13 -6 13 9 0 20 -11 25 -20 10z"/>
<path d="M2297 1202 c1 -8 3 -16 3 -18 0 -3 5 -2 10 1 6 3 10 11 10 16 0 6 -4
8 -9 5 -5 -4 -11 -3 -14 1 -2 5 -2 2 0 -5z"/>
<path d="M2050 1185 c7 -9 15 -13 17 -11 7 7 -7 26 -19 26 -6 0 -6 -6 2 -15z"/>
<path d="M2151 1184 c0 -11 3 -14 6 -6 3 7 2 16 -1 19 -3 4 -6 -2 -5 -13z"/>
<path d="M2486 1183 c-6 -14 -5 -15 5 -6 7 7 10 15 7 18 -3 3 -9 -2 -12 -12z"/>
<path d="M705 1160 c3 -5 8 -10 11 -10 2 0 4 5 4 10 0 6 -5 10 -11 10 -5 0 -7
-4 -4 -10z"/>
<path d="M2280 1160 c0 -5 7 -10 15 -10 8 0 15 5 15 10 0 6 -7 10 -15 10 -8 0
-15 -4 -15 -10z"/>
<path d="M683 1141 c0 -11 5 -18 9 -15 4 3 5 11 1 19 -7 21 -12 19 -10 -4z"/>
<path d="M2230 1151 c0 -5 7 -12 16 -15 22 -9 24 -8 24 9 0 8 -9 15 -20 15
-11 0 -20 -4 -20 -9z"/>
<path d="M2317 1145 c-4 -8 -2 -17 3 -20 6 -4 10 3 10 14 0 25 -6 27 -13 6z"/>
<path d="M1490 1136 c0 -2 7 -7 16 -10 8 -3 12 -2 9 4 -6 10 -25 14 -25 6z"/>
<path d="M2195 1130 c3 -5 8 -10 11 -10 2 0 4 5 4 10 0 6 -5 10 -11 10 -5 0
-7 -4 -4 -10z"/>
<path d="M610 1120 c8 -5 20 -10 25 -10 6 0 3 5 -5 10 -8 5 -19 10 -25 10 -5
0 -3 -5 5 -10z"/>
<path d="M2150 1120 c0 -5 5 -10 11 -10 5 0 7 5 4 10 -3 6 -8 10 -11 10 -2 0
-4 -4 -4 -10z"/>
<path d="M2490 1114 c0 -8 5 -12 10 -9 6 4 8 11 5 16 -9 14 -15 11 -15 -7z"/>
<path d="M2311 1096 c-1 -10 -6 -16 -14 -13 -15 6 -21 -59 -6 -69 5 -3 9 6 9
19 0 14 7 27 15 31 18 6 19 1 5 -25 -15 -27 4 -24 23 4 13 18 16 19 16 5 1
-18 21 -26 21 -9 0 14 -30 41 -45 41 -7 0 -16 8 -18 18 -4 15 -5 15 -6 -2z"/>
<path d="M2561 1074 c0 -11 3 -14 6 -6 3 7 2 16 -1 19 -3 4 -6 -2 -5 -13z"/>
<path d="M675 1070 c-7 -12 2 -12 30 0 19 8 19 9 -2 9 -12 1 -25 -3 -28 -9z"/>
<path d="M2482 1064 c-7 -8 -8 -14 -3 -14 10 0 25 19 20 25 -2 1 -10 -3 -17
-11z"/>
<path d="M1420 1045 c-7 -9 -8 -15 -2 -15 5 0 12 7 16 15 3 8 4 15 2 15 -2 0
-9 -7 -16 -15z"/>
<path d="M2503 1041 c-9 -11 -20 -18 -25 -15 -4 3 -8 0 -8 -6 0 -8 -10 -10
-27 -6 -21 5 -24 4 -13 -4 25 -17 50 -11 75 16 14 15 25 29 25 30 0 9 -12 2
-27 -15z"/>
<path d="M765 1039 c-11 -16 -1 -19 13 -3 7 8 8 14 3 14 -5 0 -13 -5 -16 -11z"/>
<path d="M1854 1029 c-19 -22 -19 -22 4 -8 12 8 22 17 22 21 0 12 -6 9 -26
-13z"/>
<path d="M1210 1029 c0 -5 5 -7 10 -4 6 3 10 8 10 11 0 2 -4 4 -10 4 -5 0 -10
-5 -10 -11z"/>
<path d="M2380 1013 c-8 -13 -13 -14 -16 -5 -8 17 -24 15 -24 -3 0 -8 -5 -15
-11 -15 -5 0 -8 4 -5 9 4 5 -3 7 -14 4 -12 -3 -19 -11 -17 -17 4 -13 80 -9 85
5 2 5 11 9 20 10 11 0 12 2 4 6 -6 2 -10 9 -6 14 3 5 3 9 0 9 -3 0 -10 -8 -16
-17z"/>
<path d="M2520 1020 c-9 -6 -10 -10 -3 -10 6 0 15 5 18 10 8 12 4 12 -15 0z"/>
<path d="M675 1010 c3 -5 8 -10 11 -10 2 0 4 5 4 10 0 6 -5 10 -11 10 -5 0 -7
-4 -4 -10z"/>
<path d="M1590 1009 c0 -5 5 -7 10 -4 6 3 10 8 10 11 0 2 -4 4 -10 4 -5 0 -10
-5 -10 -11z"/>
<path d="M2500 987 c0 -7 9 -13 20 -13 11 0 20 6 20 13 0 7 -9 13 -20 13 -11
0 -20 -6 -20 -13z"/>
<path d="M747 979 c7 -7 15 -10 18 -7 3 3 -2 9 -12 12 -14 6 -15 5 -6 -5z"/>
<path d="M2410 980 c-12 -8 -11 -10 7 -10 12 0 25 5 28 10 8 13 -15 13 -35 0z"/>
<path d="M2469 967 c8 -11 5 -13 -18 -9 -16 2 -31 0 -34 -5 -3 -4 15 -9 39
-10 45 -2 53 4 32 25 -16 16 -33 15 -19 -1z"/>
<path d="M1265 960 c3 -5 8 -10 11 -10 2 0 4 5 4 10 0 6 -5 10 -11 10 -5 0 -7
-4 -4 -10z"/>
<path d="M2315 962 c-3 -3 -5 -10 -5 -16 0 -6 5 -4 10 4 8 13 11 13 19 1 9
-13 31 -8 31 8 0 9 -46 12 -55 3z"/>
<path d="M935 920 c3 -5 8 -10 11 -10 2 0 4 5 4 10 0 6 -5 10 -11 10 -5 0 -7
-4 -4 -10z"/>
<path d="M1470 910 c0 -5 5 -10 10 -10 6 0 10 5 10 10 0 6 -4 10 -10 10 -5 0
-10 -4 -10 -10z"/>
<path d="M1960 910 c0 -8 24 -20 41 -20 6 0 8 4 5 9 -8 12 -46 21 -46 11z"/>
<path d="M970 906 c0 -2 7 -6 15 -10 8 -3 15 -1 15 4 0 6 -7 10 -15 10 -8 0
-15 -2 -15 -4z"/>
<path d="M937 886 c-4 -10 -1 -13 8 -9 8 3 12 9 9 14 -7 12 -11 11 -17 -5z"/>
<path d="M978 878 c5 -5 16 -8 23 -6 8 3 3 7 -10 11 -17 4 -21 3 -13 -5z"/>
<path d="M2016 882 c-2 -4 4 -8 14 -8 10 0 16 4 14 8 -3 4 -9 8 -14 8 -5 0
-11 -4 -14 -8z"/>
<path d="M950 859 c0 -5 5 -7 10 -4 6 3 10 8 10 11 0 2 -4 4 -10 4 -5 0 -10
-5 -10 -11z"/>
<path d="M2601 860 c-8 -4 -20 -6 -27 -3 -6 2 -15 0 -19 -6 -4 -7 5 -11 24
-11 16 0 33 5 36 11 10 15 2 20 -14 9z"/>
<path d="M1017 825 c-6 -15 10 -32 20 -21 4 3 1 6 -5 6 -6 0 -9 7 -6 15 4 8 4
15 1 15 -3 0 -7 -7 -10 -15z"/>
<path d="M2203 804 c0 -17 2 -22 7 -13 5 6 6 18 3 26 -8 19 -10 16 -10 -13z"/>
<path d="M1757 799 c7 -7 15 -10 18 -7 3 3 -2 9 -12 12 -14 6 -15 5 -6 -5z"/>
<path d="M5 790 c3 -5 11 -10 16 -10 6 0 7 5 4 10 -3 6 -11 10 -16 10 -6 0 -7
-4 -4 -10z"/>
<path d="M990 790 c0 -5 5 -10 11 -10 5 0 7 5 4 10 -3 6 -8 10 -11 10 -2 0 -4
-4 -4 -10z"/>
<path d="M1036 774 c-8 -21 -8 -24 5 -24 5 0 7 5 3 11 -4 8 1 9 17 4 13 -4 22
-6 19 -3 -34 27 -38 28 -44 12z"/>
<path d="M1680 775 c-10 -12 -10 -18 1 -32 13 -16 12 -17 -3 -5 -22 17 -35 -3
-16 -25 9 -12 9 -15 1 -9 -19 11 -15 -2 7 -24 19 -19 50 -18 50 1 0 5 6 8 13
7 6 -2 11 3 10 10 -2 6 2 12 7 12 6 0 10 -4 10 -9 0 -5 3 -18 6 -28 4 -12 3
-14 -3 -6 -12 17 -38 -3 -48 -37 -7 -22 -6 -24 9 -11 9 8 14 21 11 28 -4 11 1
13 23 8 24 -5 30 -2 40 20 14 30 16 46 3 26 -12 -19 -34 23 -26 49 5 15 3 18
-9 14 -9 -3 -16 -1 -16 6 0 6 -5 8 -11 4 -8 -5 -6 -10 5 -16 9 -5 16 -14 16
-20 0 -9 -3 -9 -12 0 -16 16 -29 15 -23 0 3 -7 -3 -26 -14 -41 l-18 -28 -6 23
c-4 15 -1 26 9 31 12 7 13 12 3 23 -10 12 -9 13 4 8 12 -4 14 -1 10 15 -6 25
-16 27 -33 6z"/>
<path d="M1617 765 c-4 -8 -2 -17 2 -20 5 -2 11 4 14 15 6 23 -8 27 -16 5z"/>
<path d="M2600 755 c0 -8 -5 -15 -11 -15 -5 0 -7 5 -4 10 3 6 -1 10 -9 10 -8
0 -18 -4 -21 -10 -3 -5 -1 -10 6 -10 7 0 9 -3 6 -6 -4 -4 -14 -1 -24 7 -9 8
-14 9 -10 2 4 -6 3 -14 -2 -18 -5 -3 -14 3 -20 12 -10 17 -11 16 -17 -3 -4
-16 -11 -20 -26 -16 -15 4 -19 2 -13 -7 4 -7 18 -11 31 -8 13 2 24 1 24 -2 0
-8 85 -51 100 -51 6 0 10 27 10 60 0 33 -4 60 -10 60 -5 0 -10 -7 -10 -15z
m-26 -74 c-6 -6 -34 20 -34 32 0 6 8 2 19 -9 10 -10 17 -21 15 -23z"/>
<path d="M2424 741 c0 -15 3 -17 13 -9 7 6 10 14 7 19 -9 15 -20 10 -20 -10z"/>
<path d="M2465 750 c-3 -5 -1 -10 4 -10 6 0 11 5 11 10 0 6 -2 10 -4 10 -3 0
-8 -4 -11 -10z"/>
<path d="M28 733 c7 -3 16 -2 19 1 4 3 -2 6 -13 5 -11 0 -14 -3 -6 -6z"/>
<path d="M1170 709 c7 -11 14 -19 16 -16 7 7 -7 37 -17 37 -6 0 -5 -9 1 -21z"/>
<path d="M1700 715 c-7 -9 -8 -15 -2 -15 5 0 12 7 16 15 3 8 4 15 2 15 -2 0
-9 -7 -16 -15z"/>
<path d="M1250 680 c0 -5 5 -10 10 -10 6 0 10 5 10 10 0 6 -4 10 -10 10 -5 0
-10 -4 -10 -10z"/>
<path d="M1276 674 c-9 -24 -7 -28 9 -14 17 14 20 30 6 30 -5 0 -12 -7 -15
-16z"/>
<path d="M1390 649 c0 -5 5 -7 10 -4 6 3 10 8 10 11 0 2 -4 4 -10 4 -5 0 -10
-5 -10 -11z"/>
<path d="M1794 646 c-3 -8 -12 -12 -20 -9 -8 3 -14 0 -14 -6 0 -6 6 -11 13
-11 8 0 7 -3 -3 -10 -8 -5 -11 -12 -7 -16 9 -9 48 26 42 37 -3 4 -1 10 4 13 5
4 12 2 16 -3 3 -6 12 -8 20 -5 8 4 12 11 9 16 -4 6 -10 5 -15 -3 -6 -10 -9
-11 -9 -1 0 17 -29 15 -36 -2z"/>
<path d="M1350 631 c0 -5 7 -12 16 -15 24 -9 27 -7 10 9 -17 17 -26 19 -26 6z"/>
<path d="M1410 629 c0 -5 5 -7 10 -4 6 3 10 8 10 11 0 2 -4 4 -10 4 -5 0 -10
-5 -10 -11z"/>
<path d="M1424 593 c-7 -25 -8 -25 -20 -8 -8 10 -17 15 -21 12 -4 -4 -1 -13 5
-19 14 -14 16 -32 3 -24 -5 3 -12 -1 -15 -10 -3 -8 -10 -12 -16 -9 -6 4 -7 -1
-3 -12 6 -16 5 -17 -13 -3 -18 14 -18 14 -4 -4 14 -17 15 -17 32 4 17 20 23
19 19 -4 -1 -5 4 -13 11 -17 7 -5 8 -9 2 -9 -18 0 -14 -88 5 -102 15 -12 15
-11 1 6 -11 14 -12 20 -3 23 9 3 10 9 1 23 -9 14 -8 21 4 34 12 12 18 13 21 3
3 -6 6 -2 6 11 1 12 6 22 11 22 6 0 8 -12 5 -27 -6 -26 -5 -26 6 -8 18 27 18
85 1 85 -7 0 -10 -5 -7 -11 7 -10 -21 -38 -37 -39 -13 0 -9 37 5 52 12 13 23
58 13 58 -3 0 -9 -12 -12 -27z"/>
<path d="M1735 609 c-11 -17 1 -21 15 -4 8 9 8 15 2 15 -6 0 -14 -5 -17 -11z"/>
<path d="M1799 594 c-13 -14 -17 -24 -10 -29 6 -3 11 0 11 8 0 8 7 18 16 21
25 10 27 7 13 -11 -11 -13 -11 -15 -1 -9 9 5 18 -4 29 -33 9 -23 20 -41 25
-41 5 0 4 9 -2 20 -6 11 -7 20 -3 20 4 0 2 5 -5 12 -7 7 -12 16 -12 22 0 5 6
1 14 -9 8 -11 12 -23 9 -27 -2 -5 3 -11 12 -14 12 -5 15 -14 10 -33 l-6 -26
22 25 21 25 -6 -25 c-4 -18 3 -34 24 -58 26 -30 31 -32 52 -21 19 9 21 9 11
-2 -21 -21 -15 -28 22 -25 26 2 32 -1 24 -10 -7 -8 -7 -14 1 -19 5 -3 10 -1
10 5 0 7 7 9 16 6 11 -4 15 -2 11 7 -3 8 3 14 16 15 12 0 17 -2 11 -6 -6 -4
-14 -15 -17 -26 -5 -13 -3 -17 8 -13 8 4 17 2 20 -4 4 -5 10 -7 14 -4 10 6 61
-43 61 -59 0 -6 4 -5 9 3 8 12 12 12 26 -2 9 -9 13 -22 9 -29 -4 -7 -3 -10 1
-5 5 4 17 0 27 -10 24 -22 23 -12 -2 17 -30 35 -26 59 5 26 13 -14 29 -26 36
-26 6 0 8 -7 5 -16 -3 -9 -2 -12 5 -9 6 4 8 13 5 21 -3 8 -1 14 4 14 17 0 11
18 -11 39 -12 11 -18 24 -15 30 4 5 -3 15 -14 21 -11 6 -20 7 -20 3 0 -4 -5
-1 -10 7 -5 8 -16 15 -25 15 -8 0 -14 5 -13 10 3 12 22 8 65 -12 18 -8 30 -19
27 -24 -7 -11 7 -11 24 0 16 10 4 21 -63 56 -41 23 -49 24 -59 10 -15 -20 -51
-9 -65 21 -11 25 -22 30 -35 17 -11 -12 -66 -10 -67 2 -1 6 -1 15 0 22 1 6 -4
15 -10 19 -8 5 -10 2 -6 -9 3 -9 0 -18 -9 -21 -7 -3 -13 -2 -13 2 4 27 -2 44
-13 35 -7 -5 -19 -8 -25 -7 -7 1 -18 2 -24 3 -6 0 -9 7 -6 15 5 13 -29 55 -39
49 -2 -2 -11 -3 -19 -3 -13 0 -14 2 -3 14 9 10 17 11 26 4 9 -8 11 -7 6 6 -7
19 -9 19 -34 6 -16 -9 -18 -8 -13 6 5 14 3 15 -17 4 -19 -10 -22 -10 -18 2 9
22 -30 16 -53 -8z m178 -161 c-8 -8 -38 37 -32 47 5 7 12 1 21 -16 8 -15 13
-29 11 -31z m183 3 c0 -23 -16 -27 -17 -5 -1 10 2 19 8 19 5 0 9 -6 9 -14z
m-30 -10 c0 -3 -4 -8 -10 -11 -5 -3 -10 -1 -10 4 0 6 5 11 10 11 6 0 10 -2 10
-4z m210 -156 c0 -5 -4 -10 -10 -10 -5 0 -10 5 -10 10 0 6 5 10 10 10 6 0 10
-4 10 -10z"/>
<path d="M1333 597 c-19 -11 -20 -14 -7 -31 7 -11 17 -16 21 -12 4 4 1 11 -7
16 -8 5 -11 13 -6 17 4 4 14 0 21 -10 7 -10 16 -14 19 -9 3 5 0 16 -7 25 -10
13 -16 14 -34 4z"/>
<path d="M2561 594 c0 -11 3 -14 6 -6 3 7 2 16 -1 19 -3 4 -6 -2 -5 -13z"/>
<path d="M1290 576 c0 -2 8 -10 18 -17 15 -13 16 -12 3 4 -13 16 -21 21 -21
13z"/>
<path d="M1950 566 c0 -2 7 -9 15 -16 9 -7 15 -8 15 -2 0 5 -7 12 -15 16 -8 3
-15 4 -15 2z"/>
<path d="M1420 534 c0 -8 5 -12 10 -9 6 3 10 10 10 16 0 5 -4 9 -10 9 -5 0
-10 -7 -10 -16z"/>
<path d="M1491 534 c0 -11 3 -14 6 -6 3 7 2 16 -1 19 -3 4 -6 -2 -5 -13z"/>
<path d="M1815 540 c3 -5 8 -10 11 -10 2 0 4 5 4 10 0 6 -5 10 -11 10 -5 0 -7
-4 -4 -10z"/>
<path d="M1992 538 c-17 -17 -15 -28 4 -28 8 0 12 5 8 11 -3 6 0 15 7 20 8 5
9 9 4 9 -6 0 -16 -5 -23 -12z"/>
<path d="M2117 483 c-4 -3 -7 -11 -7 -17 0 -6 5 -5 12 2 6 6 9 14 7 17 -3 3
-9 2 -12 -2z"/>
<path d="M2580 474 c0 -8 5 -12 10 -9 6 4 8 11 5 16 -9 14 -15 11 -15 -7z"/>
<path d="M1475 470 c3 -5 11 -10 16 -10 6 0 7 5 4 10 -3 6 -11 10 -16 10 -6 0
-7 -4 -4 -10z"/>
<path d="M1516 461 c-10 -11 -24 -17 -32 -14 -8 3 -14 -1 -14 -7 0 -9 -6 -8
-18 3 -21 20 -32 22 -32 6 0 -5 4 -8 9 -5 5 4 11 0 13 -6 5 -14 68 -18 68 -5
0 5 5 5 12 1 7 -5 8 -3 3 6 -5 9 -2 10 13 6 23 -8 39 8 21 20 -8 5 -9 3 -4 -6
5 -8 3 -11 -6 -8 -8 3 -13 11 -11 17 3 16 -2 14 -22 -8z"/>
<path d="M1205 460 c3 -5 8 -10 11 -10 2 0 4 5 4 10 0 6 -5 10 -11 10 -5 0 -7
-4 -4 -10z"/>
<path d="M1540 414 c0 -8 5 -12 10 -9 6 4 8 11 5 16 -9 14 -15 11 -15 -7z"/>
<path d="M1260 415 c0 -5 5 -17 10 -25 5 -8 10 -10 10 -5 0 6 -5 17 -10 25 -5
8 -10 11 -10 5z"/>
<path d="M1325 410 c-3 -5 -1 -10 4 -10 6 0 11 5 11 10 0 6 -2 10 -4 10 -3 0
-8 -4 -11 -10z"/>
<path d="M1484 413 c4 -7 16 -18 27 -23 15 -9 19 -7 19 6 0 10 -6 14 -14 11
-7 -3 -19 0 -26 6 -10 9 -11 9 -6 0z"/>
<path d="M1350 402 c0 -12 19 -26 26 -19 2 2 -2 10 -11 17 -9 8 -15 8 -15 2z"/>
<path d="M1455 389 c-4 -6 -5 -12 -2 -15 2 -3 7 2 10 11 7 17 1 20 -8 4z"/>
<path d="M1479 377 c-1 -7 -1 -16 0 -21 1 -5 -3 -12 -10 -16 -6 -4 -7 -10 -2
-13 5 -3 17 7 26 22 15 25 15 30 2 35 -8 3 -16 0 -16 -7z"/>
<path d="M1966 377 c3 -10 9 -15 12 -12 3 3 0 11 -7 18 -10 9 -11 8 -5 -6z"/>
<path d="M1310 370 c0 -5 5 -10 10 -10 6 0 10 5 10 10 0 6 -4 10 -10 10 -5 0
-10 -4 -10 -10z"/>
<path d="M1545 370 c3 -5 8 -10 11 -10 2 0 4 5 4 10 0 6 -5 10 -11 10 -5 0 -7
-4 -4 -10z"/>
<path d="M1578 355 c2 -14 8 -22 13 -19 5 3 5 14 -1 25 -14 26 -18 24 -12 -6z"/>
<path d="M1516 361 c-4 -5 -1 -11 5 -13 6 -2 12 -18 14 -36 2 -32 27 -61 53
-62 10 0 10 5 2 20 -6 11 -15 18 -20 15 -5 -3 -11 -1 -14 4 -3 5 0 11 8 14 9
4 12 14 9 26 -3 12 -9 19 -13 16 -5 -3 -15 2 -24 10 -8 8 -17 11 -20 6z"/>
<path d="M1360 352 c0 -12 19 -26 26 -19 2 2 -2 10 -11 17 -9 8 -15 8 -15 2z"/>
<path d="M1310 336 c0 -2 9 -6 20 -9 11 -3 20 -1 20 4 0 5 -9 9 -20 9 -11 0
-20 -2 -20 -4z"/>
<path d="M1291 314 c0 -11 3 -14 6 -6 3 7 2 16 -1 19 -3 4 -6 -2 -5 -13z"/>
<path d="M1484 316 c-3 -9 -12 -12 -22 -8 -15 5 -15 4 -3 -11 7 -9 22 -17 32
-17 11 0 19 -5 19 -11 0 -5 -4 -7 -10 -4 -15 10 -12 -11 4 -25 8 -6 12 -18 9
-26 -3 -8 1 -14 9 -14 7 0 15 11 16 25 1 19 -2 23 -14 18 -13 -5 -15 -2 -10
15 4 11 2 23 -4 27 -17 11 -12 35 7 28 11 -4 14 -3 9 5 -10 17 -35 15 -42 -2z"/>
<path d="M2336 318 c3 -4 9 -8 15 -8 5 0 9 4 9 8 0 5 -7 9 -15 9 -8 0 -12 -4
-9 -9z"/>
<path d="M1385 309 c-4 -6 -5 -13 -2 -16 7 -7 27 6 27 18 0 12 -17 12 -25 -2z"/>
<path d="M1610 311 c0 -6 5 -13 10 -16 6 -3 10 1 10 9 0 9 -4 16 -10 16 -5 0
-10 -4 -10 -9z"/>
<path d="M2175 300 c10 -11 20 -20 22 -20 2 0 -1 9 -7 20 -6 11 -16 20 -22 20
-6 0 -3 -9 7 -20z"/>
<path d="M1412 290 c-12 -10 -22 -24 -22 -32 1 -8 6 -6 16 7 12 17 17 18 35 7
28 -18 31 -12 10 14 -16 21 -18 21 -39 4z"/>
<path d="M2365 300 c-3 -5 -1 -10 4 -10 6 0 11 5 11 10 0 6 -2 10 -4 10 -3 0
-8 -4 -11 -10z"/>
<path d="M2380 273 c-15 -17 -19 -28 -12 -31 7 -2 12 -12 12 -23 0 -13 5 -17
17 -12 11 4 12 8 5 11 -7 2 -12 8 -12 13 0 4 7 6 15 3 8 -4 15 -15 15 -25 0
-20 15 -26 25 -9 3 6 1 10 -5 10 -7 0 -10 7 -6 15 5 14 -17 21 -47 16 -5 -1
-6 3 -2 9 3 6 10 8 15 5 4 -3 7 6 6 20 0 14 -1 25 -2 25 0 0 -11 -12 -24 -27z"/>
<path d="M1705 280 c4 -7 -3 -9 -22 -5 -15 3 -21 2 -13 -1 8 -4 23 -14 33 -22
14 -12 20 -13 30 -3 9 10 8 11 -7 5 -15 -6 -17 -4 -11 14 4 14 2 22 -5 22 -6
0 -8 -5 -5 -10z"/>
<path d="M2440 180 c-9 -6 -10 -10 -3 -10 6 0 15 5 18 10 8 12 4 12 -15 0z"/>
<path d="M2490 119 c0 -5 5 -7 10 -4 6 3 10 8 10 11 0 2 -4 4 -10 4 -5 0 -10
-5 -10 -11z"/>
<path d="M1840 80 c0 -5 7 -10 15 -10 8 0 15 5 15 10 0 6 -7 10 -15 10 -8 0
-15 -4 -15 -10z"/>
<path d="M760 63 c0 -10 10 -29 21 -43 15 -18 19 -20 15 -7 -3 11 -9 30 -12
43 -7 28 -24 32 -24 7z"/>
<path d="M1872 29 c-19 -30 -11 -32 11 -3 10 13 14 24 10 24 -5 0 -14 -9 -21
-21z"/>
</g>
</svg>
